# File created by Blade
# Date/Time:  Thu Jan 22 19:49:10 2015
#---------------------------------------------------------
:version 1.10
:name HOM
:units
  mass 1.0
  length 1.000000
  angle deg
:documentation
     Acclaim Skeleton File
:root
   axis xyz
   order TX TY TZ RX RY RZ
   position 0.000000 0.000000 0.000000
   orientation 0 0 0
:bonedata
   begin
      id 1
      name RightUpLeg_dum
      direction -1.000000 0.000000 0.000000
      length 4.478084
      axis 0.0 0.0 0.0 xyz
   end
   begin
      id 2
      name LeftUpLeg_dum
      direction 1.000000 0.000000 0.000000
      length 4.478084
      axis 0.0 0.0 0.0 xyz
   end
   begin
      id 3
      name Spine_dum
      direction 0.000000 1.000000 0.000000
      length 6.068208
      axis 0.0 0.0 0.0 xyz
   end
   begin
      id 4
      name RightUpLeg
      direction 0.000000 -1.000000 0.000000
      length 16.405774
      axis 0.0 0.0 0.0 xyz
      dof rx ry rz
   end
   begin
      id 5
      name RightLeg
      direction 0.000000 -1.000000 0.000000
      length 14.644143
      axis 0.0 0.0 0.0 xyz
      dof rx ry rz
   end
   begin
      id 6
      name RightFoot
      direction 0.000000 -0.258819 0.965926
      length 5.806150
      axis 15.0 0.0 0.0 xyz
      dof rx ry rz
   end
   begin
      id 7
      name RightToeBase
      direction 0.000000 0.000000 1.000000
      length 2.952750
      axis 0.0 0.0 0.0 xyz
      dof rx ry rz
   end
   begin
      id 8
      name LeftUpLeg
      direction 0.000000 -1.000000 0.000000
      length 16.405774
      axis 0.0 0.0 0.0 xyz
      dof rx ry rz
   end
   begin
      id 9
      name LeftLeg
      direction 0.000000 -1.000000 0.000000
      length 14.644143
      axis 0.0 0.0 0.0 xyz
      dof rx ry rz
   end
   begin
      id 10
      name LeftFoot
      direction 0.000000 -0.258819 0.965926
      length 5.806150
      axis 15.0 0.0 0.0 xyz
      dof rx ry rz
   end
   begin
      id 11
      name LeftToeBase
      direction 0.000000 0.000000 1.000000
      length 2.952750
      axis 0.0 0.0 0.0 xyz
      dof rx ry rz
   end
   begin
      id 12
      name Spine
      direction 0.000000 1.000000 0.000000
      length 0.000000
      axis 0.0 0.0 0.0 xyz
      dof rx ry rz
   end
   begin
      id 13
      name Spine_dum1
      direction 0.000000 1.000000 0.000000
      length 10.013923
      axis 0.0 0.0 0.0 xyz
   end
   begin
      id 14
      name Spine_dum2
      direction 0.000000 1.000000 0.000000
      length 10.013923
      axis 0.0 0.0 0.0 xyz
   end
   begin
      id 15
      name Spine_dum3
      direction 0.000000 1.000000 0.000000
      length 15.777476
      axis 0.0 0.0 0.0 xyz
   end
   begin
      id 16
      name RightShoulder
      direction -1.000000 0.000000 0.000000
      length 7.190220
      axis 0.0 0.0 90.0 xyz
      dof rx ry rz
   end
   begin
      id 17
      name RightArm
      direction -1.000000 0.000000 0.000000
      length 10.177469
      axis 0.0 0.0 90.0 xyz
      dof rx ry rz
   end
   begin
      id 18
      name RightForeArm
      direction -1.000000 0.000000 0.000000
      length 8.392114
      axis 0.0 0.0 90.0 xyz
      dof ry rz rx
   end
   begin
      id 19
      name RightHand
      direction -1.000000 0.000000 0.000000
      length 0.000000
      axis 0.0 0.0 90.0 xyz
      dof rx ry rz
   end
   begin
      id 20
      name RightHand_dum1
      direction -1.000000 0.000000 0.000000
      length 3.937000
      axis 0.0 0.0 90.0 xyz
   end
   begin
      id 21
      name RightHand_dum2
      direction 0.000000 0.000000 0.000000
      length 0.000000
      axis 0.0 0.0 90.0 xyz
   end
   begin
      id 22
      name RightHandThumb1
      direction 0.000000 0.000000 1.000000
      length 3.937000
      axis 0.0 0.0 90.0 xyz
      dof rx rz ry
   end
   begin
      id 23
      name LeftShoulder
      direction 1.000000 0.000000 0.000000
      length 7.190220
      axis 0.0 0.0 -90.0 xyz
      dof rx ry rz
   end
   begin
      id 24
      name LeftArm
      direction 1.000000 0.000000 0.000000
      length 10.177469
      axis 0.0 0.0 -90.0 xyz
      dof rx ry rz
   end
   begin
      id 25
      name LeftForeArm
      direction 1.000000 0.000000 0.000000
      length 8.392114
      axis 0.0 0.0 -90.0 xyz
      dof ry rz rx
   end
   begin
      id 26
      name LeftHand
      direction 1.000000 0.000000 0.000000
      length 0.000000
      axis 0.0 0.0 -90.0 xyz
      dof rx ry rz
   end
   begin
      id 27
      name LeftHand_dum1
      direction 1.000000 0.000000 0.000000
      length 3.937000
      axis 0.0 0.0 -90.0 xyz
   end
   begin
      id 28
      name LeftHand_dum2
      direction 0.000000 0.000000 0.000000
      length 0.000000
      axis 0.0 0.0 -90.0 xyz
   end
   begin
      id 29
      name LeftHandThumb1
      direction 0.000000 0.000000 1.000000
      length 3.937000
      axis 0.0 0.0 -90.0 xyz
      dof rx rz ry
   end
   begin
      id 30
      name Head
      direction 0.000000 1.000000 0.000000
      length 4.527550
      axis 0.0 0.0 0.0 xyz
      dof rx ry rz
   end
:hierarchy
   begin
      root RightUpLeg_dum LeftUpLeg_dum Spine_dum
      RightUpLeg_dum RightUpLeg
      LeftUpLeg_dum LeftUpLeg
      Spine_dum Spine
      RightUpLeg RightLeg
      RightLeg RightFoot
      RightFoot RightToeBase
      LeftUpLeg LeftLeg
      LeftLeg LeftFoot
      LeftFoot LeftToeBase
      Spine Spine_dum1 Spine_dum2 Spine_dum3
      Spine_dum1 RightShoulder
      Spine_dum2 LeftShoulder
      Spine_dum3 Head
      RightShoulder RightArm
      RightArm RightForeArm
      RightForeArm RightHand
      RightHand RightHand_dum1 RightHand_dum2
      RightHand_dum2 RightHandThumb1
      LeftShoulder LeftArm
      LeftArm LeftForeArm
      LeftForeArm LeftHand
      LeftHand LeftHand_dum1 LeftHand_dum2
      LeftHand_dum2 LeftHandThumb1
   end

# File created by Blade
# Date/Time:  Thu Jan 22 19:49:01 2015
# Frame Rate: 120.000 fps
#------------------------------------------------------
:FULLY-SPECIFIED
:DEGREES
1324
root -2.371078 3.248979 -10.438892 -20.225407 0.357054 0.626271
RightUpLeg -68.041751 -2.372453 9.555619
RightLeg 4.958536 -0.000000 -0.000000
RightFoot 21.588253 0.726354 9.161979
RightToeBase -11.817484 -0.000000 0.000000
LeftUpLeg -95.040487 -35.433273 -45.892207
LeftLeg 121.481998 -0.000000 -0.000000
LeftFoot 8.998023 15.179033 1.962094
LeftToeBase -20.976043 -0.000000 0.000000
Spine 43.766300 37.493394 23.329255
RightShoulder 19.212701 24.456671 -24.679923
RightArm 40.696970 -2.386029 107.376753
RightForeArm -113.704937 -0.000000 -4.757761
RightHand 44.736005 0.000000 -25.807700
RightHandThumb1 -24.326973 -0.000000 -32.862282
LeftShoulder -20.870086 -4.589962 26.655041
LeftArm 81.040094 50.955399 -10.970888
LeftForeArm 25.159341 -0.000000 47.679813
LeftHand -2.725312 -0.000000 -34.862686
LeftHandThumb1 -26.253704 0.000000 33.147579
Head -16.108546 15.956094 -2.222991
1325
root -2.369754 3.245744 -10.433028 -20.283130 0.387029 0.630860
RightUpLeg -68.027417 -2.457111 9.591126
RightLeg 5.001540 -0.000000 -0.000000
RightFoot 21.642497 0.708981 9.150526
RightToeBase -12.343228 -0.000000 0.000000
LeftUpLeg -94.979952 -35.415936 -45.933942
LeftLeg 121.451594 -0.000000 -0.000000
LeftFoot 9.007579 15.161017 1.855878
LeftToeBase -20.908297 -0.000000 0.000000
Spine 43.727082 37.475591 23.422211
RightShoulder 19.238690 24.406430 -24.650065
RightArm 40.711123 -2.417378 107.276336
RightForeArm -113.614072 -0.000000 -4.753699
RightHand 44.572207 0.000000 -25.155769
RightHandThumb1 -24.326973 -0.000000 -32.862282
LeftShoulder -20.801030 -4.939619 27.032971
LeftArm 80.978512 49.056731 -10.756042
LeftForeArm 25.541215 -0.000000 49.195799
LeftHand -2.939261 -0.000000 -34.031871
LeftHandThumb1 -26.253704 0.000000 33.147579
Head -16.118079 16.237411 -2.210057
1326
root -2.370260 3.243045 -10.428107 -20.349415 0.398025 0.620848
RightUpLeg -68.005722 -2.533010 9.766852
RightLeg 5.016687 -0.000000 -0.000000
RightFoot 21.780755 0.410007 9.272938
RightToeBase -13.217129 -0.000000 0.000000
LeftUpLeg -94.923638 -35.379284 -45.969598
LeftLeg 121.426284 -0.000000 -0.000000
LeftFoot 9.039421 15.165168 1.815908
LeftToeBase -20.898991 -0.000000 0.000000
Spine 43.696301 37.457750 23.522630
RightShoulder 19.308367 24.400304 -24.586041
RightArm 40.692453 -2.415277 107.161650
RightForeArm -113.572778 -0.000000 -4.751009
RightHand 44.530361 -0.000000 -24.469830
RightHandThumb1 -24.326973 -0.000000 -32.862282
LeftShoulder -20.725385 -5.308022 27.432219
LeftArm 80.866376 47.093359 -10.524750
LeftForeArm 25.842001 0.000000 50.759026
LeftHand -3.111199 -0.000000 -33.295408
LeftHandThumb1 -26.253704 0.000000 33.147579
Head -16.099821 16.611605 -2.183988
1327
root -2.365445 3.239316 -10.420265 -20.446653 0.458479 0.643681
RightUpLeg -67.972716 -2.637795 9.729675
RightLeg 5.095931 -0.000000 -0.000000
RightFoot 21.759732 0.340573 9.293002
RightToeBase -12.960587 -0.000000 0.000000
LeftUpLeg -94.797088 -35.367994 -46.067466
LeftLeg 121.378930 -0.000000 -0.000000
LeftFoot 9.054718 15.165163 1.758121
LeftToeBase -20.898630 -0.000000 0.000000
Spine 43.691203 37.405738 23.568105
RightShoulder 19.342056 24.423538 -24.514823
RightArm 40.649060 -2.325147 107.164251
RightForeArm -113.694330 -0.000000 -4.815530
RightHand 44.279715 -0.000000 -24.084270
RightHandThumb1 -24.326973 -0.000000 -32.862282
LeftShoulder -20.646768 -5.741097 27.910110
LeftArm 80.587616 45.129609 -10.418030
LeftForeArm 26.524413 -0.000000 52.387554
LeftHand -3.051520 0.000000 -32.517561
LeftHandThumb1 -26.253704 0.000000 33.147579
Head -16.126812 17.001427 -2.157672
1328
root -2.353663 3.234213 -10.410133 -20.550659 0.558752 0.717221
RightUpLeg -67.946029 -2.756143 9.386030
RightLeg 5.262042 -0.000000 -0.000000
RightFoot 21.504962 0.634079 9.351126
RightToeBase -11.856486 -0.000000 0.000000
LeftUpLeg -94.619858 -35.380418 -46.247081
LeftLeg 121.308463 -0.000000 -0.000000
LeftFoot 9.062705 15.197183 1.687196
LeftToeBase -20.812424 -0.000000 0.000000
Spine 43.644375 37.306304 23.522634
RightShoulder 19.429635 24.391339 -24.443935
RightArm 40.666135 -2.235304 107.182754
RightForeArm -113.857460 -0.000000 -4.917035
RightHand 43.846065 -0.000000 -23.889412
RightHandThumb1 -24.326973 -0.000000 -32.862282
LeftShoulder -20.534756 -6.173419 28.377882
LeftArm 80.199717 43.081454 -10.343333
LeftForeArm 27.162497 -0.000000 53.922566
LeftHand -3.032894 -0.000000 -30.854905
LeftHandThumb1 -26.253704 0.000000 33.147579
Head -16.118563 17.349965 -2.147943
1329
root -2.347780 3.228209 -10.403001 -20.643507 0.602474 0.744345
RightUpLeg -67.909808 -2.827148 9.237142
RightLeg 5.340271 -0.000000 -0.000000
RightFoot 21.499691 0.722465 9.307944
RightToeBase -12.225142 -0.000000 0.000000
LeftUpLeg -94.522696 -35.369188 -46.329924
LeftLeg 121.265794 -0.000000 -0.000000
LeftFoot 9.091338 15.207222 1.621302
LeftToeBase -20.807350 -0.000000 0.000000
Spine 43.606037 37.236419 23.516692
RightShoulder 19.501809 24.410312 -24.357626
RightArm 40.636671 -2.145769 107.197155
RightForeArm -113.951510 -0.000000 -4.954750
RightHand 43.531075 -0.000000 -23.826754
RightHandThumb1 -24.326973 -0.000000 -32.862282
LeftShoulder -20.427996 -6.702679 28.919433
LeftArm 79.612565 41.100020 -10.449828
LeftForeArm 28.105249 0.000000 55.535346
LeftHand -2.854355 -0.000000 -29.637888
LeftHandThumb1 -26.253704 0.000000 33.147579
Head -16.118487 17.757420 -2.116759
1330
root -2.346454 3.222591 -10.398407 -20.716324 0.627501 0.741755
RightUpLeg -67.882131 -2.889050 9.216396
RightLeg 5.362227 -0.000000 -0.000000
RightFoot 21.623239 0.671241 9.250276
RightToeBase -12.541132 -0.000000 0.000000
LeftUpLeg -94.460212 -35.363577 -46.372288
LeftLeg 121.234930 -0.000000 -0.000000
LeftFoot 9.121880 15.242889 1.580771
LeftToeBase -20.707354 -0.000000 0.000000
Spine 43.548202 37.207946 23.522540
RightShoulder 19.540138 24.385068 -24.248071
RightArm 40.662193 -1.983310 107.263692
RightForeArm -113.892531 -0.000000 -5.002139
RightHand 43.851907 -0.000000 -22.914800
RightHandThumb1 -24.326973 -0.000000 -32.862282
LeftShoulder -20.302856 -7.165597 29.498752
LeftArm 79.082225 39.030936 -10.471596
LeftForeArm 29.705203 -0.000000 57.026950
LeftHand -2.712525 -0.000000 -27.864729
LeftHandThumb1 -26.253704 0.000000 33.147579
Head -16.131505 18.083860 -2.097357
1331
root -2.347563 3.218149 -10.395740 -20.810219 0.628003 0.685423
RightUpLeg -67.813678 -2.944472 9.351555
RightLeg 5.323694 -0.000000 -0.000000
RightFoot 21.828671 0.326019 9.205253
RightToeBase -11.908443 -0.000000 0.000000
LeftUpLeg -94.413241 -35.354667 -46.335996
LeftLeg 121.217858 -0.000000 -0.000000
LeftFoot 9.156729 15.254653 1.526772
LeftToeBase -20.710341 -0.000000 0.000000
Spine 43.541782 37.138413 23.622326
RightShoulder 19.584575 24.416628 -24.211955
RightArm 40.620551 -1.934666 107.268745
RightForeArm -113.683683 -0.000000 -4.989324
RightHand 43.660201 -0.000000 -22.584595
RightHandThumb1 -24.326973 -0.000000 -32.862282
LeftShoulder -20.150129 -7.744574 30.111204
LeftArm 78.279094 37.057570 -10.767956
LeftForeArm 30.957430 -0.000000 58.449098
LeftHand -2.607206 0.000000 -26.269131
LeftHandThumb1 -26.253704 0.000000 33.147579
Head -16.172774 18.483639 -2.147716
